<mxfile host="Electron" agent="Mozilla/5.0 (Windows NT 10.0; Win64; x64) AppleWebKit/537.36 (KHTML, like Gecko) draw.io/24.7.17 Chrome/128.0.6613.36 Electron/32.0.1 Safari/537.36" version="24.7.17">
  <diagram name="Page-1" id="pq5xsxD_SMMbnIyq-xD5">
    <mxGraphModel dx="2752" dy="955" grid="1" gridSize="10" guides="1" tooltips="1" connect="1" arrows="1" fold="1" page="1" pageScale="1" pageWidth="1169" pageHeight="827" math="0" shadow="0">
      <root>
        <mxCell id="0" />
        <mxCell id="1" parent="0" />
        <mxCell id="RMKf5uSqgGsViAs_e21l-21" value="User" style="shape=umlActor;verticalLabelPosition=bottom;verticalAlign=top;html=1;" parent="1" vertex="1">
          <mxGeometry x="290" y="350" width="30" height="60" as="geometry" />
        </mxCell>
        <mxCell id="RMKf5uSqgGsViAs_e21l-22" value="Draw Shape" style="ellipse;whiteSpace=wrap;html=1;" parent="1" vertex="1">
          <mxGeometry x="430" y="280" width="110" height="50" as="geometry" />
        </mxCell>
        <mxCell id="RMKf5uSqgGsViAs_e21l-23" value="Colorize Shape" style="ellipse;whiteSpace=wrap;html=1;" parent="1" vertex="1">
          <mxGeometry x="430" y="360" width="110" height="50" as="geometry" />
        </mxCell>
        <mxCell id="RMKf5uSqgGsViAs_e21l-24" value="Remove Shape" style="ellipse;whiteSpace=wrap;html=1;" parent="1" vertex="1">
          <mxGeometry x="430" y="438" width="110" height="50" as="geometry" />
        </mxCell>
        <mxCell id="RMKf5uSqgGsViAs_e21l-32" value="" style="edgeStyle=orthogonalEdgeStyle;rounded=0;orthogonalLoop=1;jettySize=auto;html=1;" parent="1" source="RMKf5uSqgGsViAs_e21l-27" target="RMKf5uSqgGsViAs_e21l-28" edge="1">
          <mxGeometry relative="1" as="geometry" />
        </mxCell>
        <mxCell id="RMKf5uSqgGsViAs_e21l-38" value="opens" style="edgeLabel;html=1;align=center;verticalAlign=middle;resizable=0;points=[];" parent="RMKf5uSqgGsViAs_e21l-32" vertex="1" connectable="0">
          <mxGeometry x="-0.3162" y="1" relative="1" as="geometry">
            <mxPoint as="offset" />
          </mxGeometry>
        </mxCell>
        <mxCell id="RMKf5uSqgGsViAs_e21l-27" value="Button Click" style="html=1;whiteSpace=wrap;" parent="1" vertex="1">
          <mxGeometry x="600" y="290" width="90" height="30" as="geometry" />
        </mxCell>
        <mxCell id="RMKf5uSqgGsViAs_e21l-31" value="" style="edgeStyle=orthogonalEdgeStyle;rounded=0;orthogonalLoop=1;jettySize=auto;html=1;" parent="1" source="RMKf5uSqgGsViAs_e21l-28" target="RMKf5uSqgGsViAs_e21l-30" edge="1">
          <mxGeometry relative="1" as="geometry" />
        </mxCell>
        <mxCell id="RMKf5uSqgGsViAs_e21l-39" value="opens" style="edgeLabel;html=1;align=center;verticalAlign=middle;resizable=0;points=[];" parent="RMKf5uSqgGsViAs_e21l-31" vertex="1" connectable="0">
          <mxGeometry x="-0.2377" y="-1" relative="1" as="geometry">
            <mxPoint as="offset" />
          </mxGeometry>
        </mxCell>
        <mxCell id="RMKf5uSqgGsViAs_e21l-28" value="Shapes Menu" style="html=1;whiteSpace=wrap;" parent="1" vertex="1">
          <mxGeometry x="630" y="360" width="90" height="30" as="geometry" />
        </mxCell>
        <mxCell id="RMKf5uSqgGsViAs_e21l-30" value="Properties Input Menu" style="whiteSpace=wrap;html=1;" parent="1" vertex="1">
          <mxGeometry x="650" y="428" width="145" height="31" as="geometry" />
        </mxCell>
        <mxCell id="RMKf5uSqgGsViAs_e21l-33" value="" style="endArrow=open;endFill=1;endSize=12;html=1;rounded=0;exitX=1;exitY=0.5;exitDx=0;exitDy=0;entryX=0;entryY=0.5;entryDx=0;entryDy=0;" parent="1" source="RMKf5uSqgGsViAs_e21l-22" target="RMKf5uSqgGsViAs_e21l-27" edge="1">
          <mxGeometry width="160" relative="1" as="geometry">
            <mxPoint x="220" y="336" as="sourcePoint" />
            <mxPoint x="380" y="336" as="targetPoint" />
            <Array as="points" />
          </mxGeometry>
        </mxCell>
        <mxCell id="RMKf5uSqgGsViAs_e21l-34" value="Created Shapes Menu&lt;div&gt;&lt;font style=&quot;font-size: 8px;&quot;&gt;&amp;lt;&amp;lt;Database&amp;gt;&amp;gt;&lt;/font&gt;&lt;/div&gt;" style="html=1;whiteSpace=wrap;" parent="1" vertex="1">
          <mxGeometry x="760" y="226" width="140" height="50" as="geometry" />
        </mxCell>
        <mxCell id="RMKf5uSqgGsViAs_e21l-36" value="" style="endArrow=diamondThin;endFill=0;endSize=24;html=1;rounded=0;entryX=0.5;entryY=1;entryDx=0;entryDy=0;exitX=1;exitY=0.5;exitDx=0;exitDy=0;" parent="1" edge="1">
          <mxGeometry width="160" relative="1" as="geometry">
            <mxPoint x="795" y="442.5" as="sourcePoint" />
            <mxPoint x="830" y="275" as="targetPoint" />
            <Array as="points">
              <mxPoint x="830" y="443" />
            </Array>
          </mxGeometry>
        </mxCell>
        <mxCell id="RMKf5uSqgGsViAs_e21l-37" value="Stored at&amp;nbsp;" style="edgeLabel;html=1;align=center;verticalAlign=middle;resizable=0;points=[];" parent="RMKf5uSqgGsViAs_e21l-36" vertex="1" connectable="0">
          <mxGeometry x="-0.0607" y="-1" relative="1" as="geometry">
            <mxPoint as="offset" />
          </mxGeometry>
        </mxCell>
        <mxCell id="RMKf5uSqgGsViAs_e21l-41" value="" style="endArrow=open;endFill=1;endSize=12;html=1;rounded=0;exitX=1;exitY=0.5;exitDx=0;exitDy=0;entryX=0.75;entryY=1;entryDx=0;entryDy=0;" parent="1" edge="1">
          <mxGeometry width="160" relative="1" as="geometry">
            <mxPoint x="540" y="385" as="sourcePoint" />
            <mxPoint x="865" y="276" as="targetPoint" />
            <Array as="points">
              <mxPoint x="600" y="386" />
              <mxPoint x="600" y="486" />
              <mxPoint x="865" y="486" />
            </Array>
          </mxGeometry>
        </mxCell>
        <mxCell id="RMKf5uSqgGsViAs_e21l-42" value="changing property" style="edgeLabel;html=1;align=center;verticalAlign=middle;resizable=0;points=[];" parent="RMKf5uSqgGsViAs_e21l-41" vertex="1" connectable="0">
          <mxGeometry x="-0.0908" y="1" relative="1" as="geometry">
            <mxPoint as="offset" />
          </mxGeometry>
        </mxCell>
        <mxCell id="RMKf5uSqgGsViAs_e21l-43" value="" style="endArrow=open;endFill=1;endSize=12;html=1;rounded=0;exitX=1;exitY=0.5;exitDx=0;exitDy=0;" parent="1" source="RMKf5uSqgGsViAs_e21l-24" edge="1">
          <mxGeometry width="160" relative="1" as="geometry">
            <mxPoint x="580" y="356" as="sourcePoint" />
            <mxPoint x="890" y="276" as="targetPoint" />
            <Array as="points">
              <mxPoint x="570" y="463" />
              <mxPoint x="570" y="506" />
              <mxPoint x="890" y="506" />
            </Array>
          </mxGeometry>
        </mxCell>
        <mxCell id="RMKf5uSqgGsViAs_e21l-44" value="Delete opject" style="edgeLabel;html=1;align=center;verticalAlign=middle;resizable=0;points=[];" parent="RMKf5uSqgGsViAs_e21l-43" vertex="1" connectable="0">
          <mxGeometry x="0.0364" relative="1" as="geometry">
            <mxPoint as="offset" />
          </mxGeometry>
        </mxCell>
        <mxCell id="USz4Qo-gf9uDBhj3zrDa-1" value="Needs" style="endArrow=open;endSize=12;dashed=1;html=1;rounded=0;exitX=0;exitY=0.5;exitDx=0;exitDy=0;entryX=0;entryY=1;entryDx=0;entryDy=0;" parent="1" source="RMKf5uSqgGsViAs_e21l-23" target="RMKf5uSqgGsViAs_e21l-22" edge="1">
          <mxGeometry x="0.1652" width="160" relative="1" as="geometry">
            <mxPoint x="470" y="376" as="sourcePoint" />
            <mxPoint x="630" y="376" as="targetPoint" />
            <Array as="points">
              <mxPoint x="410" y="385" />
              <mxPoint x="410" y="346" />
              <mxPoint x="446" y="346" />
            </Array>
            <mxPoint as="offset" />
          </mxGeometry>
        </mxCell>
        <mxCell id="USz4Qo-gf9uDBhj3zrDa-2" value="Needs" style="endArrow=open;endSize=12;dashed=1;html=1;rounded=0;exitX=0;exitY=0.5;exitDx=0;exitDy=0;entryX=0;entryY=0.5;entryDx=0;entryDy=0;" parent="1" source="RMKf5uSqgGsViAs_e21l-24" target="RMKf5uSqgGsViAs_e21l-22" edge="1">
          <mxGeometry x="-0.1849" width="160" relative="1" as="geometry">
            <mxPoint x="400.15" y="465.5" as="sourcePoint" />
            <mxPoint x="400.15" y="421.5" as="targetPoint" />
            <Array as="points">
              <mxPoint x="390" y="463" />
              <mxPoint x="390" y="305" />
            </Array>
            <mxPoint as="offset" />
          </mxGeometry>
        </mxCell>
        <mxCell id="C0YIQ4TRfovsTZMmDKrr-1" value="&lt;div&gt;&lt;span style=&quot;font-weight: 400;&quot;&gt;«interface»&lt;/span&gt;&lt;/div&gt;&lt;div&gt;Shape&lt;/div&gt;" style="swimlane;fontStyle=1;align=center;verticalAlign=top;childLayout=stackLayout;horizontal=1;startSize=50;horizontalStack=0;resizeParent=1;resizeParentMax=0;resizeLast=0;collapsible=1;marginBottom=0;whiteSpace=wrap;html=1;" vertex="1" parent="1">
          <mxGeometry x="-1080" y="200" width="230" height="196" as="geometry" />
        </mxCell>
        <mxCell id="C0YIQ4TRfovsTZMmDKrr-2" value="+ setPosition()&lt;div&gt;+ getPosition() : Piont&lt;/div&gt;&lt;div&gt;+ setProperties()&lt;/div&gt;&lt;div&gt;+ getProperties(): Map&amp;lt;String, Double&amp;gt;&lt;/div&gt;&lt;div&gt;+ setColor()&lt;/div&gt;&lt;div&gt;+ getColor(): Color&lt;/div&gt;&lt;div&gt;+ setFillColor()&lt;/div&gt;&lt;div&gt;+ getFillColor(): Color&lt;br&gt;&lt;/div&gt;&lt;div&gt;+ draw(&lt;font color=&quot;#cccccc&quot;&gt;java.awt.Graphics canvas&lt;/font&gt;)&lt;/div&gt;" style="text;strokeColor=none;fillColor=none;align=left;verticalAlign=top;spacingLeft=4;spacingRight=4;overflow=hidden;rotatable=0;points=[[0,0.5],[1,0.5]];portConstraint=eastwest;whiteSpace=wrap;html=1;" vertex="1" parent="C0YIQ4TRfovsTZMmDKrr-1">
          <mxGeometry y="50" width="230" height="146" as="geometry" />
        </mxCell>
        <mxCell id="C0YIQ4TRfovsTZMmDKrr-3" value="&amp;lt;&amp;lt;ShapeObject&amp;gt;&amp;gt;" style="swimlane;fontStyle=1;align=center;verticalAlign=top;childLayout=stackLayout;horizontal=1;startSize=26;horizontalStack=0;resizeParent=1;resizeParentMax=0;resizeLast=0;collapsible=1;marginBottom=0;whiteSpace=wrap;html=1;" vertex="1" parent="1">
          <mxGeometry x="-790" y="200" width="230" height="250" as="geometry" />
        </mxCell>
        <mxCell id="C0YIQ4TRfovsTZMmDKrr-4" value="&lt;div&gt;- position: Point&lt;/div&gt;-&amp;nbsp;properties:&amp;nbsp;Map&amp;lt;String, Double&amp;gt;&lt;div&gt;- color: Color&lt;/div&gt;&lt;div&gt;- fillColor:&amp;nbsp;&lt;span style=&quot;background-color: initial;&quot;&gt;Color&lt;/span&gt;&lt;/div&gt;" style="text;strokeColor=none;fillColor=none;align=left;verticalAlign=top;spacingLeft=4;spacingRight=4;overflow=hidden;rotatable=0;points=[[0,0.5],[1,0.5]];portConstraint=eastwest;whiteSpace=wrap;html=1;" vertex="1" parent="C0YIQ4TRfovsTZMmDKrr-3">
          <mxGeometry y="26" width="230" height="74" as="geometry" />
        </mxCell>
        <mxCell id="C0YIQ4TRfovsTZMmDKrr-5" value="" style="line;strokeWidth=1;fillColor=none;align=left;verticalAlign=middle;spacingTop=-1;spacingLeft=3;spacingRight=3;rotatable=0;labelPosition=right;points=[];portConstraint=eastwest;strokeColor=inherit;" vertex="1" parent="C0YIQ4TRfovsTZMmDKrr-3">
          <mxGeometry y="100" width="230" height="8" as="geometry" />
        </mxCell>
        <mxCell id="C0YIQ4TRfovsTZMmDKrr-6" value="+ setPosition()&lt;div&gt;+ getPosition() : Piont&lt;/div&gt;&lt;div&gt;+ setProperties()&lt;/div&gt;&lt;div&gt;+ getProperties(): Map&amp;lt;String, Double&amp;gt;&lt;/div&gt;&lt;div&gt;+ setColor()&lt;/div&gt;&lt;div&gt;+ getColor(): Color&lt;/div&gt;&lt;div&gt;+ setFillColor()&lt;/div&gt;&lt;div&gt;+ getFillColor(): Color&lt;br&gt;&lt;/div&gt;&lt;div&gt;+ draw(&lt;font color=&quot;#cccccc&quot;&gt;java.awt.Graphics canvas&lt;/font&gt;)&lt;/div&gt;" style="text;strokeColor=none;fillColor=none;align=left;verticalAlign=top;spacingLeft=4;spacingRight=4;overflow=hidden;rotatable=0;points=[[0,0.5],[1,0.5]];portConstraint=eastwest;whiteSpace=wrap;html=1;" vertex="1" parent="C0YIQ4TRfovsTZMmDKrr-3">
          <mxGeometry y="108" width="230" height="142" as="geometry" />
        </mxCell>
        <mxCell id="C0YIQ4TRfovsTZMmDKrr-7" value="" style="endArrow=block;dashed=1;endFill=0;endSize=12;html=1;rounded=0;exitX=0.5;exitY=0;exitDx=0;exitDy=0;entryX=0.505;entryY=1.011;entryDx=0;entryDy=0;entryPerimeter=0;" edge="1" parent="1" source="C0YIQ4TRfovsTZMmDKrr-3" target="C0YIQ4TRfovsTZMmDKrr-2">
          <mxGeometry width="160" relative="1" as="geometry">
            <mxPoint x="-690" y="460" as="sourcePoint" />
            <mxPoint x="-530" y="460" as="targetPoint" />
            <Array as="points">
              <mxPoint x="-675" y="150" />
              <mxPoint x="-820" y="150" />
              <mxPoint x="-820" y="440" />
              <mxPoint x="-964" y="440" />
            </Array>
          </mxGeometry>
        </mxCell>
        <mxCell id="C0YIQ4TRfovsTZMmDKrr-8" value="Line" style="swimlane;fontStyle=1;align=center;verticalAlign=top;childLayout=stackLayout;horizontal=1;startSize=26;horizontalStack=0;resizeParent=1;resizeParentMax=0;resizeLast=0;collapsible=1;marginBottom=0;whiteSpace=wrap;html=1;" vertex="1" parent="1">
          <mxGeometry x="-860" y="570" width="220" height="80" as="geometry" />
        </mxCell>
        <mxCell id="C0YIQ4TRfovsTZMmDKrr-11" value="&lt;div&gt;&lt;br&gt;&lt;/div&gt;+ getProperties(): Map&amp;lt;String, Double&amp;gt;" style="text;strokeColor=none;fillColor=none;align=left;verticalAlign=top;spacingLeft=4;spacingRight=4;overflow=hidden;rotatable=0;points=[[0,0.5],[1,0.5]];portConstraint=eastwest;whiteSpace=wrap;html=1;" vertex="1" parent="C0YIQ4TRfovsTZMmDKrr-8">
          <mxGeometry y="26" width="220" height="54" as="geometry" />
        </mxCell>
        <mxCell id="C0YIQ4TRfovsTZMmDKrr-12" value="&lt;span style=&quot;font-weight: 400;&quot;&gt;«interface»&lt;/span&gt;&lt;br style=&quot;font-weight: 400;&quot;&gt;&lt;b&gt;Drawing Engine&lt;/b&gt;" style="swimlane;fontStyle=1;align=center;verticalAlign=top;childLayout=stackLayout;horizontal=1;startSize=50;horizontalStack=0;resizeParent=1;resizeParentMax=0;resizeLast=0;collapsible=1;marginBottom=0;whiteSpace=wrap;html=1;" vertex="1" parent="1">
          <mxGeometry x="-530" y="200" width="230" height="126" as="geometry" />
        </mxCell>
        <mxCell id="C0YIQ4TRfovsTZMmDKrr-13" value="- addShape()&lt;div&gt;&lt;span style=&quot;background-color: initial;&quot;&gt;- removeShape()&lt;/span&gt;&lt;/div&gt;&lt;div&gt;&lt;span style=&quot;background-color: initial;&quot;&gt;- getShapes(): Shap[]&lt;/span&gt;&lt;/div&gt;&lt;div&gt;- refresh(&lt;span style=&quot;background-color: initial;&quot;&gt;&lt;font color=&quot;#cccccc&quot;&gt;java.awt.Graphics canvas&lt;/font&gt;&lt;/span&gt;&lt;span style=&quot;background-color: initial;&quot;&gt;)&lt;/span&gt;&lt;/div&gt;" style="text;strokeColor=none;fillColor=none;align=left;verticalAlign=top;spacingLeft=4;spacingRight=4;overflow=hidden;rotatable=0;points=[[0,0.5],[1,0.5]];portConstraint=eastwest;whiteSpace=wrap;html=1;" vertex="1" parent="C0YIQ4TRfovsTZMmDKrr-12">
          <mxGeometry y="50" width="230" height="76" as="geometry" />
        </mxCell>
        <mxCell id="C0YIQ4TRfovsTZMmDKrr-14" value="Drawingbase" style="swimlane;fontStyle=1;align=center;verticalAlign=top;childLayout=stackLayout;horizontal=1;startSize=26;horizontalStack=0;resizeParent=1;resizeParentMax=0;resizeLast=0;collapsible=1;marginBottom=0;whiteSpace=wrap;html=1;" vertex="1" parent="1">
          <mxGeometry x="-260" y="250" width="210" height="200" as="geometry" />
        </mxCell>
        <mxCell id="C0YIQ4TRfovsTZMmDKrr-15" value="- data: ArrayList&amp;lt;ShapeOpject&amp;gt;&lt;div&gt;- size: int&lt;/div&gt;" style="text;strokeColor=none;fillColor=none;align=left;verticalAlign=top;spacingLeft=4;spacingRight=4;overflow=hidden;rotatable=0;points=[[0,0.5],[1,0.5]];portConstraint=eastwest;whiteSpace=wrap;html=1;" vertex="1" parent="C0YIQ4TRfovsTZMmDKrr-14">
          <mxGeometry y="26" width="210" height="44" as="geometry" />
        </mxCell>
        <mxCell id="C0YIQ4TRfovsTZMmDKrr-16" value="" style="line;strokeWidth=1;fillColor=none;align=left;verticalAlign=middle;spacingTop=-1;spacingLeft=3;spacingRight=3;rotatable=0;labelPosition=right;points=[];portConstraint=eastwest;strokeColor=inherit;" vertex="1" parent="C0YIQ4TRfovsTZMmDKrr-14">
          <mxGeometry y="70" width="210" height="8" as="geometry" />
        </mxCell>
        <mxCell id="C0YIQ4TRfovsTZMmDKrr-17" value="+ addShape()&lt;div&gt;&lt;span style=&quot;background-color: initial;&quot;&gt;+ removeShape()&lt;/span&gt;&lt;/div&gt;&lt;div&gt;&lt;span style=&quot;background-color: initial;&quot;&gt;+ getShapes(): Shap[]&lt;/span&gt;&lt;/div&gt;&lt;div&gt;+ refresh(&lt;span style=&quot;background-color: initial;&quot;&gt;&lt;font color=&quot;#cccccc&quot;&gt;java.awt.Graphics canvas&lt;/font&gt;&lt;/span&gt;&lt;span style=&quot;background-color: initial;&quot;&gt;)&lt;/span&gt;&lt;/div&gt;&lt;div&gt;&lt;span style=&quot;background-color: initial;&quot;&gt;+ increaseSize()&lt;/span&gt;&lt;/div&gt;&lt;div&gt;&lt;span style=&quot;background-color: initial;&quot;&gt;+ decreaseSize()&lt;/span&gt;&lt;/div&gt;&lt;div&gt;&lt;span style=&quot;background-color: initial;&quot;&gt;+ getSize()&lt;/span&gt;&lt;/div&gt;" style="text;strokeColor=none;fillColor=none;align=left;verticalAlign=top;spacingLeft=4;spacingRight=4;overflow=hidden;rotatable=0;points=[[0,0.5],[1,0.5]];portConstraint=eastwest;whiteSpace=wrap;html=1;" vertex="1" parent="C0YIQ4TRfovsTZMmDKrr-14">
          <mxGeometry y="78" width="210" height="122" as="geometry" />
        </mxCell>
        <mxCell id="C0YIQ4TRfovsTZMmDKrr-19" value="Circle" style="swimlane;fontStyle=1;align=center;verticalAlign=top;childLayout=stackLayout;horizontal=1;startSize=26;horizontalStack=0;resizeParent=1;resizeParentMax=0;resizeLast=0;collapsible=1;marginBottom=0;whiteSpace=wrap;html=1;" vertex="1" parent="1">
          <mxGeometry x="-1100" y="570" width="220" height="80" as="geometry" />
        </mxCell>
        <mxCell id="C0YIQ4TRfovsTZMmDKrr-20" value="&lt;div&gt;&lt;br&gt;&lt;/div&gt;+ getProperties(): Map&amp;lt;String, Double&amp;gt;" style="text;strokeColor=none;fillColor=none;align=left;verticalAlign=top;spacingLeft=4;spacingRight=4;overflow=hidden;rotatable=0;points=[[0,0.5],[1,0.5]];portConstraint=eastwest;whiteSpace=wrap;html=1;" vertex="1" parent="C0YIQ4TRfovsTZMmDKrr-19">
          <mxGeometry y="26" width="220" height="54" as="geometry" />
        </mxCell>
        <mxCell id="C0YIQ4TRfovsTZMmDKrr-21" value="Rectangle" style="swimlane;fontStyle=1;align=center;verticalAlign=top;childLayout=stackLayout;horizontal=1;startSize=26;horizontalStack=0;resizeParent=1;resizeParentMax=0;resizeLast=0;collapsible=1;marginBottom=0;whiteSpace=wrap;html=1;" vertex="1" parent="1">
          <mxGeometry x="-620" y="570" width="220" height="80" as="geometry" />
        </mxCell>
        <mxCell id="C0YIQ4TRfovsTZMmDKrr-22" value="&lt;div&gt;&lt;br&gt;&lt;/div&gt;+ getProperties(): Map&amp;lt;String, Double&amp;gt;" style="text;strokeColor=none;fillColor=none;align=left;verticalAlign=top;spacingLeft=4;spacingRight=4;overflow=hidden;rotatable=0;points=[[0,0.5],[1,0.5]];portConstraint=eastwest;whiteSpace=wrap;html=1;" vertex="1" parent="C0YIQ4TRfovsTZMmDKrr-21">
          <mxGeometry y="26" width="220" height="54" as="geometry" />
        </mxCell>
        <mxCell id="C0YIQ4TRfovsTZMmDKrr-23" value="Square" style="swimlane;fontStyle=1;align=center;verticalAlign=top;childLayout=stackLayout;horizontal=1;startSize=26;horizontalStack=0;resizeParent=1;resizeParentMax=0;resizeLast=0;collapsible=1;marginBottom=0;whiteSpace=wrap;html=1;" vertex="1" parent="1">
          <mxGeometry x="-380" y="570" width="220" height="80" as="geometry" />
        </mxCell>
        <mxCell id="C0YIQ4TRfovsTZMmDKrr-24" value="&lt;div&gt;&lt;br&gt;&lt;/div&gt;+ getProperties(): Map&amp;lt;String, Double&amp;gt;" style="text;strokeColor=none;fillColor=none;align=left;verticalAlign=top;spacingLeft=4;spacingRight=4;overflow=hidden;rotatable=0;points=[[0,0.5],[1,0.5]];portConstraint=eastwest;whiteSpace=wrap;html=1;" vertex="1" parent="C0YIQ4TRfovsTZMmDKrr-23">
          <mxGeometry y="26" width="220" height="54" as="geometry" />
        </mxCell>
        <mxCell id="C0YIQ4TRfovsTZMmDKrr-25" value="" style="endArrow=block;endSize=16;endFill=0;html=1;rounded=0;exitX=0.5;exitY=0;exitDx=0;exitDy=0;entryX=0.183;entryY=0.994;entryDx=0;entryDy=0;entryPerimeter=0;" edge="1" parent="1" source="C0YIQ4TRfovsTZMmDKrr-19" target="C0YIQ4TRfovsTZMmDKrr-6">
          <mxGeometry width="160" relative="1" as="geometry">
            <mxPoint x="-720" y="460" as="sourcePoint" />
            <mxPoint x="-560" y="460" as="targetPoint" />
            <Array as="points">
              <mxPoint x="-990" y="540" />
              <mxPoint x="-990" y="500" />
              <mxPoint x="-748" y="500" />
            </Array>
          </mxGeometry>
        </mxCell>
        <mxCell id="C0YIQ4TRfovsTZMmDKrr-27" value="" style="endArrow=block;endSize=16;endFill=0;html=1;rounded=0;exitX=0.5;exitY=0;exitDx=0;exitDy=0;entryX=0.436;entryY=1.015;entryDx=0;entryDy=0;entryPerimeter=0;" edge="1" parent="1" source="C0YIQ4TRfovsTZMmDKrr-8" target="C0YIQ4TRfovsTZMmDKrr-6">
          <mxGeometry x="0.0047" width="160" relative="1" as="geometry">
            <mxPoint x="-720" y="460" as="sourcePoint" />
            <mxPoint x="-687" y="450" as="targetPoint" />
            <Array as="points">
              <mxPoint x="-750" y="540" />
              <mxPoint x="-690" y="540" />
            </Array>
            <mxPoint as="offset" />
          </mxGeometry>
        </mxCell>
        <mxCell id="C0YIQ4TRfovsTZMmDKrr-29" value="" style="endArrow=block;endSize=16;endFill=0;html=1;rounded=0;exitX=0.5;exitY=0;exitDx=0;exitDy=0;entryX=0.644;entryY=1.018;entryDx=0;entryDy=0;entryPerimeter=0;" edge="1" parent="1" source="C0YIQ4TRfovsTZMmDKrr-21" target="C0YIQ4TRfovsTZMmDKrr-6">
          <mxGeometry x="0.0047" width="160" relative="1" as="geometry">
            <mxPoint x="-740" y="580" as="sourcePoint" />
            <mxPoint x="-676" y="464" as="targetPoint" />
            <mxPoint as="offset" />
            <Array as="points">
              <mxPoint x="-510" y="540" />
              <mxPoint x="-642" y="540" />
            </Array>
          </mxGeometry>
        </mxCell>
        <mxCell id="C0YIQ4TRfovsTZMmDKrr-30" value="" style="endArrow=block;endSize=16;endFill=0;html=1;rounded=0;exitX=0.5;exitY=0;exitDx=0;exitDy=0;entryX=0.864;entryY=1.03;entryDx=0;entryDy=0;entryPerimeter=0;" edge="1" parent="1" source="C0YIQ4TRfovsTZMmDKrr-23" target="C0YIQ4TRfovsTZMmDKrr-6">
          <mxGeometry x="0.0047" width="160" relative="1" as="geometry">
            <mxPoint x="-730" y="590" as="sourcePoint" />
            <mxPoint x="-666" y="474" as="targetPoint" />
            <mxPoint as="offset" />
            <Array as="points">
              <mxPoint x="-270" y="500" />
              <mxPoint x="-591" y="500" />
            </Array>
          </mxGeometry>
        </mxCell>
        <mxCell id="C0YIQ4TRfovsTZMmDKrr-33" value="" style="endArrow=block;dashed=1;endFill=0;endSize=12;html=1;rounded=0;exitX=0.5;exitY=0;exitDx=0;exitDy=0;entryX=0.5;entryY=0;entryDx=0;entryDy=0;" edge="1" parent="1" source="C0YIQ4TRfovsTZMmDKrr-14" target="C0YIQ4TRfovsTZMmDKrr-12">
          <mxGeometry width="160" relative="1" as="geometry">
            <mxPoint x="-620" y="470" as="sourcePoint" />
            <mxPoint x="-460" y="470" as="targetPoint" />
            <Array as="points">
              <mxPoint x="-155" y="220" />
              <mxPoint x="-280" y="220" />
              <mxPoint x="-280" y="150" />
              <mxPoint x="-415" y="150" />
            </Array>
          </mxGeometry>
        </mxCell>
        <mxCell id="C0YIQ4TRfovsTZMmDKrr-36" value="" style="endArrow=open;html=1;endSize=12;startArrow=diamondThin;startSize=14;startFill=1;edgeStyle=orthogonalEdgeStyle;align=left;verticalAlign=bottom;rounded=0;entryX=1;entryY=0.5;entryDx=0;entryDy=0;exitX=0.002;exitY=0.669;exitDx=0;exitDy=0;exitPerimeter=0;" edge="1" parent="1" source="C0YIQ4TRfovsTZMmDKrr-17" target="C0YIQ4TRfovsTZMmDKrr-6">
          <mxGeometry x="-1" y="3" relative="1" as="geometry">
            <mxPoint x="-340" y="410" as="sourcePoint" />
            <mxPoint x="-350" y="460" as="targetPoint" />
          </mxGeometry>
        </mxCell>
        <mxCell id="C0YIQ4TRfovsTZMmDKrr-38" value="&lt;font style=&quot;font-size: 17px;&quot;&gt;UML Diagram - for Drawing Vector Program&lt;/font&gt;" style="text;align=center;fontStyle=1;verticalAlign=middle;spacingLeft=3;spacingRight=3;strokeColor=none;rotatable=0;points=[[0,0.5],[1,0.5]];portConstraint=eastwest;html=1;" vertex="1" parent="1">
          <mxGeometry x="-624" y="30" width="80" height="26" as="geometry" />
        </mxCell>
        <mxCell id="C0YIQ4TRfovsTZMmDKrr-39" value="&lt;font style=&quot;font-size: 17px;&quot;&gt;Initial Graph - for Drawing Vector Program&lt;/font&gt;" style="text;align=center;fontStyle=1;verticalAlign=middle;spacingLeft=3;spacingRight=3;strokeColor=none;rotatable=0;points=[[0,0.5],[1,0.5]];portConstraint=eastwest;html=1;" vertex="1" parent="1">
          <mxGeometry x="590" y="30" width="80" height="26" as="geometry" />
        </mxCell>
      </root>
    </mxGraphModel>
  </diagram>
</mxfile>
